# xmcd
#
# Track frame offsets:
#	225
#	15540
#	30507
#	43059
#	58735
#	77148
#	92009
#	109556
#	122039
#	137391
#	149215
#	160542
#	173910
#
# Disc length: 2501 seconds
#
# Revision: 0
# Processed by: cddbd v1.5.2PL0 Copyright (c) Steve Scherf et al.
# Submitted via: EasyCDDAExtractor 16.1.0.1
#
DISCID=a609c20d
DTITLE=Biker Joe Warren
DYEAR=1996
DGENRE=Blues
TTITLE0=I Wanna Be A Gynecologist
TTITLE1=Dingleberry Blues
TTITLE2=Hershey Highway
TTITLE3=Fuck You
TTITLE4=Mr. Squeeze
TTITLE5=Milwaukee Thunder
TTITLE6=Darlin' You Sure Give Good Head
TTITLE7=Low Down
TTITLE8=The Ugliest Mutha Alive
TTITLE9=Don't Touch Me There
TTITLE10=Red Wings
TTITLE11=Big Dick Dan
TTITLE12=Devils Highway
EXTD=
EXTT0=
EXTT1=
EXTT2=
EXTT3=
EXTT4=
EXTT5=
EXTT6=
EXTT7=
EXTT8=
EXTT9=
EXTT10=
EXTT11=
EXTT12=
PLAYORDER=
